<?xml version="1.0" standalone="no"?>
<!DOCTYPE svg PUBLIC "-//W3C//DTD SVG 20010904//EN"
 "http://www.w3.org/TR/2001/REC-SVG-20010904/DTD/svg10.dtd">
<svg version="1.0" xmlns="http://www.w3.org/2000/svg"
 width="2500.000000pt" height="2500.000000pt" viewBox="0 0 2500.000000 2500.000000"
 preserveAspectRatio="xMidYMid meet">
<metadata>
Created by potrace 1.14, written by Peter Selinger 2001-2017
</metadata>
<g transform="translate(0.000000,2500.000000) scale(0.100000,-0.100000)"
fill="#000000" stroke="none">
<path d="M8402 22215 c-81 -18 -122 -47 -122 -86 0 -16 -6 -29 -12 -30 -189
-10 -373 -33 -448 -55 -103 -31 -325 -105 -400 -134 -257 -100 -328 -128 -445
-177 -225 -95 -690 -331 -802 -407 -73 -50 -181 -142 -205 -176 -24 -32 -67
-132 -184 -425 -24 -60 -49 -119 -54 -130 -10 -21 -101 -244 -172 -420 -57
-144 -159 -359 -175 -368 -7 -4 -13 -14 -13 -22 0 -8 -9 -38 -20 -68 l-20 -54
-68 -11 c-37 -6 -141 -18 -232 -26 -91 -9 -178 -18 -195 -20 -75 -12 -369 -27
-402 -22 -21 4 -78 2 -128 -3 -193 -21 -418 -41 -590 -51 -392 -23 -494 -30
-603 -41 -106 -12 -113 -14 -118 -36 -13 -50 4 -95 53 -146 107 -110 293 -246
407 -297 224 -102 585 -178 936 -198 147 -9 172 -15 315 -77 17 -7 107 -41
200 -75 94 -34 250 -91 348 -127 l179 -66 -5 -31 c-2 -17 -17 -87 -31 -156
-24 -110 -26 -134 -18 -200 6 -41 18 -100 27 -130 10 -30 23 -113 29 -184 11
-124 13 -129 41 -152 17 -13 44 -35 62 -49 21 -17 49 -61 78 -122 25 -53 45
-96 45 -97 0 0 -28 1 -62 2 l-62 4 45 -34 c25 -19 65 -43 90 -52 40 -15 51
-26 87 -91 l42 -73 0 -108 c0 -88 -6 -131 -30 -224 -47 -183 -142 -517 -212
-745 -116 -374 -117 -350 20 -485 53 -52 116 -108 140 -124 55 -38 145 -54
340 -62 l152 -7 0 -62 c0 -34 6 -68 13 -76 26 -33 136 -97 192 -114 36 -10
109 -20 180 -23 137 -5 162 -14 242 -86 l51 -46 -16 -42 c-18 -45 -20 -194 -7
-366 9 -107 27 -132 205 -274 192 -154 182 -139 115 -171 -30 -15 -55 -31 -55
-36 0 -4 -17 -16 -37 -27 -162 -82 -545 -328 -748 -478 -145 -108 -436 -348
-497 -409 -57 -58 -92 -120 -83 -148 4 -11 2 -25 -3 -32 -5 -7 -12 -73 -16
-148 -3 -74 -11 -151 -17 -170 -20 -66 -22 -277 -5 -384 36 -216 149 -326 521
-505 77 -37 169 -80 205 -95 36 -14 79 -32 95 -40 36 -15 343 -137 435 -172
36 -13 81 -30 100 -38 19 -7 53 -20 75 -28 354 -138 961 -336 1360 -443 33 -9
80 -22 105 -29 75 -22 424 -105 545 -130 44 -9 95 -21 112 -27 l33 -10 -59
-39 c-70 -47 -155 -129 -177 -171 -21 -40 -6 -82 46 -133 45 -44 48 -53 23
-62 -29 -11 -335 -188 -451 -260 -151 -94 -310 -205 -485 -340 -37 -29 -104
-71 -148 -95 -52 -27 -97 -61 -127 -94 -200 -221 -194 -210 -186 -319 7 -99
26 -194 70 -350 46 -163 52 -178 108 -270 65 -106 136 -192 281 -344 103 -108
122 -134 137 -181 32 -102 58 -256 70 -410 16 -206 1 -341 -59 -551 -2 -8 4
-20 14 -25 10 -5 45 -37 77 -71 l59 -63 -51 -77 c-68 -100 -70 -138 -12 -253
22 -44 40 -84 40 -89 0 -18 -95 -101 -115 -101 -27 0 -65 -27 -65 -46 0 -8
-11 -19 -24 -24 -32 -12 -40 -61 -22 -130 8 -30 51 -166 95 -301 45 -135 81
-253 81 -261 0 -9 23 -66 50 -128 27 -62 50 -122 50 -134 0 -11 21 -51 46 -88
l46 -67 -21 -29 c-11 -16 -36 -41 -56 -56 -30 -23 -46 -27 -106 -29 -66 -2
-72 -4 -101 -35 -26 -30 -29 -40 -27 -85 3 -48 1 -52 -41 -89 -52 -47 -160
-118 -178 -118 -7 0 -36 12 -64 26 -39 20 -61 25 -91 21 -51 -7 -63 -19 -117
-125 -65 -125 -54 -121 -335 -108 -455 22 -648 -87 -758 -429 -87 -266 -70
-702 35 -910 54 -107 92 -148 182 -198 28 -15 60 -34 71 -41 43 -27 228 -84
390 -121 151 -34 482 -82 667 -96 170 -12 325 -8 733 22 342 24 414 33 498 59
37 12 109 30 160 41 100 22 180 51 447 164 240 102 287 117 313 104 29 -16
607 -5 817 15 555 54 783 109 1066 257 106 56 142 81 191 132 52 54 60 67 56
93 -27 169 -85 432 -101 458 -3 6 -7 21 -8 33 -4 40 -43 91 -78 104 -31 11
-34 16 -44 78 -55 318 -150 681 -241 913 -23 59 -40 112 -37 117 7 11 303 181
315 181 4 0 11 29 14 65 6 63 4 69 -87 312 -176 464 -188 496 -231 589 -52
112 -69 124 -180 124 -41 0 -75 1 -75 3 0 2 5 29 10 60 23 123 -16 176 -173
241 -194 79 -249 125 -309 256 -78 167 -96 209 -107 245 -7 22 -64 144 -126
270 -62 127 -166 347 -230 490 -65 143 -140 304 -167 359 -27 54 -48 100 -46
102 7 6 257 119 388 174 136 57 417 179 685 297 206 91 642 303 707 345 85 54
171 78 280 78 l97 0 93 -63 c116 -78 192 -132 239 -168 20 -16 40 -29 44 -29
8 0 152 -112 265 -205 140 -117 391 -306 736 -555 51 -36 134 -101 185 -145
51 -44 126 -106 166 -137 41 -33 89 -83 111 -115 21 -32 98 -141 172 -242 74
-101 179 -245 234 -320 142 -197 377 -553 451 -686 85 -152 133 -243 215 -410
162 -331 371 -749 392 -784 21 -32 21 -39 10 -165 -6 -72 -16 -153 -22 -181
-19 -95 -23 -171 -10 -211 20 -60 75 -140 143 -208 155 -154 663 -585 764
-648 69 -43 189 -88 339 -127 37 -10 43 -15 53 -54 16 -57 29 -125 46 -232 7
-49 19 -125 26 -168 10 -62 10 -83 1 -98 -51 -82 14 -417 108 -554 42 -62 160
-159 232 -193 215 -100 271 -123 331 -138 37 -9 67 -20 67 -23 0 -4 10 -7 23
-9 13 -1 42 -8 65 -16 23 -8 81 -18 129 -22 122 -9 195 -45 358 -175 237 -190
675 -469 735 -469 5 0 10 -4 10 -10 0 -5 7 -10 15 -10 8 0 52 -20 98 -44 117
-64 462 -214 527 -230 30 -8 102 -29 160 -46 237 -72 421 -103 610 -103 306
-1 680 104 947 264 216 130 280 193 364 355 88 171 122 303 122 469 -1 219
-92 393 -293 559 -136 113 -279 202 -585 361 -265 138 -466 255 -634 369 -91
62 -170 126 -394 320 l-56 49 21 30 c31 44 36 131 11 188 -36 81 -330 386
-448 464 -58 38 -149 75 -185 75 -27 0 -36 40 -17 76 17 34 121 343 132 392 3
18 10 30 15 27 4 -2 11 44 14 104 8 115 0 166 -34 224 -10 18 -31 57 -48 87
-85 158 -321 530 -354 558 -9 7 -51 22 -94 33 -43 11 -83 24 -89 29 -5 4 -37
13 -69 19 -56 10 -96 33 -96 53 0 5 -19 53 -42 106 -22 53 -52 125 -64 160
-24 65 -55 101 -87 102 -17 0 -178 61 -254 95 -17 8 -33 15 -36 15 -10 0 -176
78 -352 166 -93 46 -180 84 -192 84 -17 0 -44 33 -126 158 -58 86 -195 280
-305 431 l-200 274 -42 155 c-51 186 -73 220 -173 272 -92 48 -159 90 -175
109 -25 31 -157 239 -267 421 -268 442 -384 629 -441 710 -43 61 -135 214
-165 274 -30 61 -45 70 -139 85 -41 7 -111 19 -155 27 -44 8 -118 21 -165 30
-140 25 -180 33 -300 60 -63 15 -142 33 -175 40 -89 20 -193 47 -355 93 -80
22 -160 41 -178 41 -30 0 -75 -15 -167 -55 -16 -8 -86 -37 -155 -65 -69 -28
-134 -55 -145 -59 -11 -5 -40 -17 -65 -27 -25 -9 -63 -25 -85 -34 -22 -9 -60
-25 -85 -34 -25 -10 -58 -24 -75 -31 -16 -8 -66 -28 -110 -45 -44 -17 -93 -38
-108 -46 -16 -8 -33 -14 -38 -14 -9 0 -58 -20 -124 -50 -11 -5 -45 -19 -75
-30 -30 -11 -64 -25 -75 -30 -11 -5 -60 -25 -110 -46 -105 -42 -149 -61 -188
-80 -16 -8 -33 -14 -38 -14 -5 0 -44 -16 -86 -36 -132 -60 -141 -64 -151 -64
-5 0 -31 -12 -57 -26 -55 -29 -287 -108 -385 -131 -36 -8 -121 -21 -190 -28
-69 -8 -142 -17 -162 -21 -22 -4 -43 -2 -50 4 -7 5 -33 13 -58 17 -25 4 -67
13 -95 20 -59 15 -166 38 -290 60 -269 50 -386 78 -542 131 -55 18 -110 34
-120 34 -31 0 -267 72 -653 200 -167 55 -483 158 -600 195 -30 9 -85 32 -123
51 -38 19 -74 34 -81 34 -22 0 -116 73 -116 90 0 23 73 93 151 145 48 33 70
42 93 39 17 -2 88 -8 158 -13 70 -5 132 -12 137 -15 15 -10 343 -60 505 -78
104 -12 110 -11 146 10 l38 22 134 -30 c328 -72 698 -177 774 -220 38 -21 59
-28 64 -21 4 8 82 -14 242 -69 257 -88 399 -132 405 -126 3 3 -306 208 -399
265 -21 12 -38 26 -38 29 0 4 16 18 36 31 l35 24 202 -22 c323 -35 572 -52
712 -49 l130 3 -93 47 c-142 71 -188 104 -211 150 l-20 41 54 43 c29 24 69 62
88 84 34 40 35 41 78 31 74 -15 187 -23 206 -13 10 5 36 17 58 28 54 25 184
157 215 219 14 27 34 57 45 66 l20 18 -20 7 c-11 4 -40 15 -64 25 -50 22 -61
23 -61 8 0 -6 -12 -23 -27 -39 -16 -15 -46 -51 -68 -80 -22 -29 -62 -74 -88
-101 l-48 -49 -182 46 c-100 25 -202 54 -227 65 -80 35 -164 99 -205 156 -60
83 -141 152 -223 190 -57 27 -76 32 -92 23 -27 -14 -12 -38 49 -75 60 -38 166
-139 193 -184 33 -56 67 -89 148 -144 41 -28 77 -53 80 -57 3 -4 18 -10 34
-14 17 -4 46 -14 65 -22 l34 -14 -29 -31 c-16 -17 -62 -53 -102 -80 -67 -44
-79 -49 -130 -49 -40 0 -73 8 -112 26 -110 52 -229 85 -353 99 -38 4 -59 13
-95 45 -48 42 -87 59 -103 43 -11 -11 17 -90 44 -120 27 -31 96 -63 134 -63
32 0 118 -34 128 -50 3 -6 -4 -10 -17 -10 -38 -1 -107 -37 -178 -95 -147 -118
-211 -114 -510 35 -74 37 -164 84 -200 104 -36 20 -96 53 -133 73 -38 20 -75
46 -82 57 -18 28 -87 202 -141 351 -23 66 -59 165 -79 220 -20 55 -40 112 -45
126 -15 49 -32 71 -63 84 -36 15 -213 21 -268 10 -34 -7 -37 -5 -43 21 -7 26
-76 200 -111 279 -109 243 -156 372 -186 509 -23 109 -24 140 -2 223 14 51 23
67 41 74 58 22 236 43 372 44 l145 1 91 46 c49 25 112 63 139 83 27 21 70 48
97 60 27 12 56 29 66 37 18 16 381 247 422 269 16 8 62 13 125 14 88 0 111 -4
195 -33 123 -43 184 -72 295 -137 120 -70 149 -84 295 -145 174 -72 252 -94
311 -86 26 4 50 3 53 -2 2 -4 -20 -20 -50 -36 -67 -35 -148 -106 -136 -118 5
-5 40 8 83 30 151 78 216 102 312 114 l92 11 50 -33 c28 -19 67 -49 88 -67 20
-18 48 -33 61 -33 14 0 37 -5 51 -10 27 -10 27 -10 -34 -51 -62 -41 -101 -82
-101 -104 0 -13 56 -37 130 -55 98 -25 96 -25 147 20 80 72 208 122 349 137
l42 5 25 -54 c35 -74 47 -143 47 -263 0 -130 -1 -131 -171 -199 -148 -59 -230
-79 -329 -79 -104 -1 -85 -8 -265 96 -139 80 -423 184 -482 176 -46 -6 -203
36 -254 67 -20 13 -40 20 -43 17 -3 -4 -20 6 -36 22 -58 56 -29 -4 42 -87 49
-57 49 -57 26 -69 -32 -16 -53 -44 -93 -120 -33 -65 -71 -176 -62 -185 2 -2
12 15 21 39 9 26 37 64 65 90 l49 46 4 -57 c4 -53 51 -172 68 -172 4 0 12 30
18 67 10 57 9 74 -6 118 -16 47 -17 56 -3 84 20 42 67 56 157 46 64 -7 67 -8
39 -18 -35 -11 -65 -35 -65 -52 0 -7 27 -16 68 -21 l67 -9 -55 -29 c-30 -15
-70 -42 -87 -59 -28 -27 -33 -38 -33 -79 0 -36 4 -48 15 -48 9 0 18 -7 21 -15
4 -8 11 -15 16 -15 6 0 17 -8 25 -17 8 -10 16 -14 19 -8 2 6 34 -19 71 -54 37
-36 68 -60 70 -54 3 8 51 -19 121 -65 135 -91 238 -149 447 -256 740 -379
1958 -744 3170 -951 116 -19 246 -46 290 -59 129 -39 385 -59 671 -53 271 5
361 19 483 72 42 18 88 37 103 40 15 4 39 18 53 31 31 29 34 85 5 132 -59 96
-254 248 -450 350 -47 24 -89 48 -95 52 -36 28 -386 196 -580 277 -861 363
-2004 676 -2919 798 -60 8 -112 17 -114 20 -3 3 3 14 14 26 17 19 19 37 19
148 -1 69 -6 150 -13 179 -15 66 -57 154 -87 182 -29 27 -162 54 -370 75 -223
22 -278 34 -303 67 -19 26 -126 106 -156 118 -20 7 -38 5 -79 -11 -36 -15 -80
-22 -142 -25 -126 -4 -226 23 -390 106 -127 65 -291 166 -315 195 -11 13 4 33
92 123 57 59 124 130 148 157 24 28 110 120 190 206 173 185 270 302 410 499
57 80 106 148 109 152 3 4 7 -5 8 -20 0 -15 32 -118 70 -229 38 -112 67 -203
64 -203 -3 0 0 -5 7 -12 7 -7 12 -20 12 -31 0 -15 -5 -18 -32 -13 -27 4 -25 3
8 -8 56 -19 80 -32 139 -76 30 -23 92 -53 155 -75 142 -51 413 -168 461 -200
22 -14 38 -29 35 -34 -3 -4 -121 -52 -263 -106 -142 -54 -262 -103 -268 -108
-6 -6 13 -7 55 -3 283 27 510 47 650 56 91 6 187 16 214 21 94 18 97 16 139
-60 l37 -69 -32 -186 -32 -185 45 -58 c24 -32 96 -112 160 -178 122 -127 173
-194 236 -316 22 -41 66 -110 97 -152 49 -65 65 -78 100 -88 22 -5 55 -14 72
-18 18 -5 38 -4 49 2 13 7 20 6 26 -6 5 -8 26 -18 46 -21 21 -4 54 -13 73 -21
19 -8 109 -34 199 -59 91 -25 167 -50 171 -55 6 -11 138 -46 146 -38 9 8 6 39
-9 124 -17 87 -40 141 -82 191 -49 59 -215 185 -456 345 -262 175 -243 157
-333 320 -20 38 -71 128 -112 199 -77 134 -294 560 -294 577 0 11 88 -20 215
-75 139 -61 258 -138 370 -239 52 -48 95 -75 175 -109 36 -16 98 -44 138 -62
40 -19 112 -50 160 -70 48 -21 92 -41 97 -45 6 -4 53 -25 105 -47 52 -22 129
-56 170 -75 41 -19 152 -69 245 -112 349 -160 936 -465 1261 -657 50 -29 127
-71 171 -93 45 -22 85 -48 90 -58 8 -16 12 -15 56 13 26 18 47 37 47 43 0 11
93 127 183 229 23 26 45 44 49 40 5 -5 11 -69 14 -143 5 -135 32 -284 62 -344
64 -130 237 -269 404 -326 90 -30 135 -55 189 -106 82 -77 225 -321 262 -448
43 -147 63 -198 124 -315 36 -69 92 -177 125 -240 33 -63 67 -123 76 -132 13
-13 46 -21 122 -29 121 -12 220 -6 340 22 156 37 384 162 396 217 3 15 10 41
16 57 5 17 12 105 15 196 l6 167 -64 48 c-62 49 -330 269 -381 315 -29 27 -84
97 -123 159 -20 32 -85 183 -85 198 0 2 37 21 83 42 84 40 169 63 292 80 39 5
91 14 118 19 31 7 65 7 98 1 29 -6 71 -10 93 -10 43 0 177 -44 237 -78 19 -10
62 -29 97 -40 56 -20 82 -22 270 -22 388 1 556 28 829 134 55 21 57 24 70 71
17 65 12 277 -10 368 -24 101 -51 142 -106 163 -60 22 -89 21 -251 -6 -74 -12
-160 -26 -190 -31 -72 -12 -246 -12 -290 0 -68 18 -80 23 -80 32 0 5 1 9 3 9
32 0 248 49 397 89 63 17 149 38 190 46 80 15 166 42 219 69 39 21 69 67 76
121 13 92 -34 341 -74 389 -8 10 -27 24 -42 31 -24 13 -33 13 -69 0 -58 -20
-57 -20 -65 25 -4 22 -16 64 -27 93 -11 28 -22 62 -25 74 -9 40 -31 48 -148
51 l-111 4 -12 30 c-22 58 -86 154 -111 166 -38 18 -153 14 -229 -8 -37 -10
-132 -44 -212 -74 -80 -29 -181 -64 -225 -76 -91 -25 -151 -45 -280 -91 -97
-34 -197 -63 -258 -73 -35 -7 -42 -4 -88 38 -62 56 -98 66 -254 75 -67 4 -131
13 -144 20 -13 7 -36 17 -50 21 -14 5 -51 18 -81 30 -72 27 -142 51 -267 90
l-103 32 0 57 c-1 74 -35 375 -45 391 -5 7 -10 29 -12 49 -4 38 -18 61 -37 61
-6 0 -36 16 -66 36 -169 110 -467 226 -1145 447 -501 164 -720 223 -1000 271
-44 7 -114 28 -155 45 -41 18 -113 49 -160 68 -47 20 -96 43 -110 53 -22 14
-211 102 -350 162 -25 10 -54 23 -65 28 -100 44 -311 129 -450 180 -207 75
-235 87 -235 99 0 5 -15 12 -32 16 -30 6 -194 63 -243 84 -40 18 -191 70 -220
77 -16 4 -34 10 -40 14 -5 5 -28 12 -50 16 -43 8 -121 39 -256 102 -211 99
-492 182 -617 182 -89 0 -330 -26 -500 -55 -80 -14 -147 -25 -149 -25 -2 0 -3
15 -3 33 0 45 -30 70 -112 96 -95 29 -121 44 -167 98 -22 27 -79 95 -127 153
-109 131 -340 377 -368 392 -26 14 -263 14 -506 0 -96 -6 -176 -9 -178 -7 -2
1 33 49 78 106 266 342 502 727 566 924 25 80 24 165 -5 238 -50 127 -234 364
-393 508 l-80 72 7 76 c14 148 27 390 35 651 4 146 11 279 15 297 4 18 0 72
-8 125 -9 51 -23 158 -32 238 -48 429 -131 610 -386 841 -267 240 -717 571
-1069 784 -80 48 -280 164 -445 258 -165 93 -307 176 -316 183 -9 8 -19 32
-23 54 -4 26 -16 47 -38 65 -51 43 -214 116 -317 142 -122 31 -307 39 -399 18z
m-133 -199 c-2 -2 -39 -18 -83 -36 -43 -17 -93 -38 -110 -47 -17 -10 -33 -18
-36 -18 -3 0 -14 -6 -25 -12 -11 -6 -65 -30 -120 -53 -340 -144 -1082 -505
-1104 -538 -3 -5 -33 -23 -66 -42 -33 -18 -97 -56 -143 -84 -79 -49 -85 -54
-118 -123 -18 -40 -34 -77 -34 -82 0 -11 -60 -164 -165 -421 -69 -168 -198
-541 -261 -755 -50 -167 -48 -165 -137 -165 -106 1 -333 32 -350 49 -8 8 23
116 52 176 33 67 116 276 249 625 139 366 195 502 211 518 9 9 23 30 31 45 13
27 56 65 105 94 11 6 84 50 162 97 78 47 146 86 151 86 6 0 12 3 14 8 2 4 19
15 38 26 67 35 125 67 185 102 33 19 71 40 85 46 14 7 27 15 30 18 6 6 47 28
130 71 58 30 107 51 205 90 33 12 64 27 70 31 5 4 16 8 25 8 8 0 28 7 44 15
15 8 33 15 40 15 6 0 23 6 38 14 15 8 40 17 57 21 17 4 33 11 36 16 4 5 14 9
23 9 9 0 29 6 44 14 15 8 42 17 60 21 18 4 38 11 43 15 6 4 26 11 45 15 19 4
41 11 50 16 8 4 69 24 135 44 66 21 134 42 150 47 17 6 50 14 75 18 50 8 176
12 169 6z m-3109 -2512 c-108 -52 -243 -112 -488 -214 -56 -23 -155 -74 -220
-112 -64 -39 -180 -104 -257 -145 l-140 -75 -125 25 c-143 29 -208 45 -230 56
-9 5 -31 12 -50 16 -19 4 -41 11 -50 16 -8 5 -27 13 -43 19 -15 5 -27 13 -26
17 7 42 -38 71 -82 54 -21 -7 -34 -4 -75 21 -51 32 -196 142 -240 183 l-26 24
29 14 c29 16 189 30 513 47 96 5 198 12 225 14 86 9 511 36 720 46 110 5 220
12 245 15 43 6 343 31 405 34 22 0 -2 -15 -85 -55z m2758 -618 c5 -3 36 -8 68
-12 120 -12 293 -59 372 -100 15 -7 35 -14 45 -14 9 0 17 -4 17 -9 0 -5 14
-13 32 -16 18 -4 39 -11 48 -16 8 -4 31 -15 50 -23 19 -8 70 -30 112 -50 42
-19 104 -47 137 -61 134 -56 263 -117 561 -264 189 -94 253 -127 410 -216 106
-60 224 -123 303 -162 37 -19 67 -36 67 -39 0 -3 -4 -14 -10 -24 -9 -17 -12
-17 -82 0 -82 21 -237 31 -238 15 -1 -9 10 -13 105 -30 22 -4 34 -10 28 -12
-7 -3 -13 -11 -13 -18 0 -14 36 -27 113 -41 40 -7 42 -10 27 -48 -8 -23 -12
-24 -42 -15 -42 12 -135 12 -143 0 -8 -15 8 -21 73 -27 72 -8 86 -15 78 -40
-5 -16 -14 -19 -52 -15 -36 2 -45 0 -42 -10 3 -8 18 -18 34 -24 16 -5 31 -10
32 -11 2 -1 -5 -35 -16 -76 -22 -78 -25 -103 -23 -184 1 -52 14 -70 39 -55 7
4 21 43 32 87 109 424 393 877 719 1149 64 54 80 62 149 76 l77 17 94 -50
c130 -67 202 -118 320 -222 151 -134 238 -243 339 -423 74 -132 80 -163 48
-251 -29 -82 -125 -276 -171 -347 -18 -27 -54 -83 -80 -124 -105 -166 -343
-477 -432 -567 -24 -23 -43 -46 -43 -51 0 -5 -47 -55 -104 -111 l-103 -102
-64 0 c-48 0 -94 10 -182 40 -142 48 -177 51 -177 16 0 -14 5 -28 10 -31 6 -4
24 -32 40 -63 42 -81 82 -151 111 -197 58 -90 75 -216 43 -318 -57 -186 -189
-433 -367 -687 -71 -102 -163 -224 -192 -256 -5 -6 -21 -24 -35 -40 -14 -16
-52 -61 -85 -99 -32 -39 -96 -108 -141 -155 -44 -47 -100 -107 -124 -133 -46
-50 -60 -49 -60 4 0 16 -15 44 -40 72 -40 46 -50 67 -29 67 8 0 10 19 6 65
l-6 65 29 -15 c17 -9 30 -20 30 -25 0 -5 9 -12 20 -15 11 -3 23 -17 26 -31 8
-32 32 -31 32 1 0 15 -11 33 -25 45 -13 10 -26 27 -28 38 -2 11 -11 34 -20 52
-20 39 -16 46 13 20 12 -12 22 -18 22 -14 0 3 16 -4 36 -15 62 -37 147 -46
126 -15 -4 6 -32 20 -62 31 l-55 21 -6 69 c-4 38 -15 85 -25 105 -22 42 -84
112 -112 127 -38 20 -31 -2 12 -40 48 -42 97 -140 102 -201 3 -44 -2 -49 -16
-13 -15 39 -73 114 -93 121 -35 11 -30 -5 17 -57 49 -54 55 -69 31 -69 -8 0
-15 -5 -15 -12 0 -6 -7 -4 -18 5 -17 15 -42 23 -42 13 0 -2 12 -17 28 -33 25
-28 60 -99 42 -88 -4 3 -33 42 -63 88 -58 87 -92 124 -117 127 -36 5 -42 -2
-13 -15 23 -10 30 -18 27 -32 -7 -26 44 -131 66 -138 18 -6 23 -20 35 -93 5
-31 5 -32 -15 -15 -11 10 -20 21 -20 26 0 16 -94 139 -98 128 -2 -6 3 -20 12
-32 14 -20 14 -24 -2 -35 -16 -12 -15 -13 6 -14 28 0 46 -42 38 -85 -6 -25 1
-36 51 -87 32 -32 63 -58 70 -58 9 0 13 -16 13 -49 0 -47 -2 -50 -70 -112 -39
-35 -78 -68 -88 -73 -9 -5 -42 -28 -72 -51 -63 -47 -173 -115 -187 -115 -9 0
-154 235 -169 273 -6 17 -34 24 -34 9 0 -8 124 -228 156 -276 15 -25 15 -25
-60 -69 l-76 -44 -58 12 c-31 7 -69 16 -84 20 -16 4 -28 5 -28 1 0 -10 56 -35
91 -41 18 -3 35 -7 36 -9 5 -5 -242 -110 -351 -149 l-65 -24 -41 24 c-22 13
-40 29 -40 35 0 6 -11 8 -25 5 -25 -4 -25 -4 -8 16 17 20 17 20 -2 13 -41 -17
-53 -17 -93 -6 -23 6 -46 20 -52 30 -13 25 -32 26 -28 3 5 -30 -12 -26 -35 8
-25 36 -53 57 -63 46 -4 -4 0 -15 10 -25 14 -17 15 -23 3 -50 -12 -29 -14 -30
-29 -16 -32 32 -39 4 -9 -34 16 -20 31 -54 34 -74 5 -36 -4 -50 -18 -28 -9 14
-25 12 -25 -3 0 -8 10 -19 23 -25 16 -8 18 -11 5 -11 -26 -1 -77 47 -104 100
-13 27 -29 49 -35 49 -6 0 -8 -7 -5 -16 3 -9 6 -21 6 -28 0 -7 16 -35 36 -61
29 -37 34 -49 23 -56 -21 -13 -25 -12 -58 26 -29 34 -50 47 -35 24 4 -7 1 -10
-7 -7 -8 3 -13 11 -12 17 2 6 -4 11 -12 11 -20 0 -35 41 -28 71 6 21 5 23 -10
10 -9 -7 -17 -23 -17 -35 0 -18 -4 -16 -22 13 -19 30 -23 32 -29 15 -7 -17 -8
-17 -8 4 -1 12 -5 22 -11 22 -12 0 -13 -40 -1 -59 5 -7 13 -11 19 -7 6 3 12 3
14 -2 7 -16 107 -82 125 -82 10 0 24 -5 31 -12 10 -10 7 -15 -10 -24 -17 -9
-27 -8 -52 7 -39 24 -54 24 -33 1 24 -27 21 -32 -18 -32 -49 0 -90 23 -105 59
-13 33 -35 32 -24 -1 5 -17 3 -18 -15 -9 -12 7 -29 24 -38 39 -28 45 -261 321
-323 382 -44 44 -173 154 -245 210 -150 116 -172 139 -193 199 -19 53 -36 154
-49 299 -6 62 -6 62 20 62 16 0 47 -17 79 -42 184 -148 238 -178 324 -178 35
0 73 4 86 9 13 5 55 19 93 31 99 31 286 132 380 206 79 61 256 237 305 302 14
19 34 46 46 60 46 60 115 162 109 162 -3 0 2 12 12 28 19 27 73 150 73 165 0
5 6 23 14 40 16 34 32 100 47 187 5 30 13 71 19 90 5 19 12 58 15 85 4 28 11
54 16 60 18 18 291 19 420 0 172 -24 173 -6 7 64 -53 23 -103 41 -110 41 -8 0
-18 4 -23 9 -25 22 -265 65 -435 76 -136 10 -257 62 -436 190 -7 5 -16 6 -19
3 -7 -6 93 -140 109 -147 5 -2 25 -18 45 -35 20 -17 47 -37 61 -43 48 -23 115
-50 165 -68 77 -28 82 -36 59 -87 -79 -180 -199 -290 -539 -493 -181 -108
-450 -248 -559 -290 -50 -20 -100 -40 -111 -44 -33 -14 -105 -38 -185 -60 -41
-12 -88 -26 -105 -32 -16 -6 -112 -13 -212 -16 -145 -4 -194 -1 -243 11 -34 9
-72 16 -84 16 -53 0 -90 55 -80 119 l6 38 162 6 c158 5 235 20 244 45 3 9 -19
12 -75 12 -43 0 -96 5 -118 10 -22 5 -173 14 -335 20 -162 6 -315 15 -339 21
-57 13 -143 73 -176 124 -62 96 -59 183 14 411 46 145 67 217 101 354 7 25 15
54 20 65 14 34 51 186 76 310 50 250 47 309 -20 460 -16 35 -30 76 -30 90 -1
6 -14 37 -30 70 -15 33 -32 69 -36 80 -5 11 -15 36 -24 55 -111 261 -216 568
-216 636 0 73 49 364 79 469 14 47 40 166 46 206 l5 36 78 6 c281 23 453 38
489 43 93 14 474 20 1080 18 354 -1 647 -5 651 -8z m2884 -2782 c32 -43 70
-93 85 -110 15 -17 39 -44 52 -60 13 -16 47 -56 75 -89 29 -33 69 -84 90 -113
l38 -52 -139 -147 c-152 -161 -182 -191 -334 -338 -403 -387 -366 -353 -497
-458 -39 -32 -72 -63 -72 -69 0 -6 -58 -70 -130 -143 l-130 -132 1 -74 c1 -90
22 -303 59 -602 18 -143 23 -142 -132 -12 -232 195 -430 298 -532 278 -28 -6
-30 -5 -17 10 7 9 18 17 24 17 14 0 151 81 155 92 2 4 8 8 14 8 5 0 20 8 33
18 12 9 33 24 45 32 130 87 247 190 356 310 37 41 88 98 114 125 267 287 394
454 542 710 128 222 217 454 239 620 5 44 12 96 15 116 5 33 -15 118 -35 144
-4 5 -11 19 -14 30 -9 27 20 -7 95 -111z m-2365 -176 c-10 -120 -86 -384 -115
-402 -4 -2 -21 -30 -36 -60 -15 -30 -40 -68 -54 -83 -14 -15 -59 -72 -99 -126
-74 -97 -239 -277 -256 -277 -4 0 -23 -11 -40 -24 -18 -14 -68 -44 -112 -67
-297 -158 -415 -191 -482 -135 -15 13 -51 35 -79 49 -28 14 -98 63 -155 109
-57 46 -120 95 -139 108 -19 13 -43 32 -53 41 -18 17 -18 17 0 23 66 20 145
39 188 46 28 4 93 23 145 42 377 139 656 291 925 505 55 43 125 97 155 120 63
46 132 111 175 166 16 20 32 37 34 37 2 0 1 -33 -2 -72z m7073 -862 c36 -15
74 -31 85 -36 11 -5 36 -15 55 -24 19 -8 61 -26 93 -40 32 -14 64 -26 72 -26
28 0 15 -18 -17 -25 -18 -4 -39 -11 -48 -16 -8 -5 -60 -27 -115 -49 -238 -97
-420 -199 -515 -286 -60 -56 -89 -94 -72 -94 5 0 60 33 121 74 124 82 525 286
537 273 6 -6 -73 -67 -87 -67 -7 0 -33 -21 -58 -47 -26 -27 -82 -79 -125 -117
-65 -58 -77 -73 -73 -94 3 -16 -9 -53 -35 -106 -41 -82 -71 -157 -65 -162 2
-2 32 22 67 53 94 82 212 168 288 209 37 20 91 52 121 71 l53 35 97 -7 c53 -3
105 -10 116 -15 11 -5 211 -56 445 -114 701 -173 1178 -320 1470 -454 77 -36
115 -71 105 -101 -3 -11 0 -29 6 -39 10 -16 10 -24 -3 -44 -8 -12 -18 -48 -22
-78 -3 -30 -13 -95 -20 -145 -8 -49 -21 -135 -30 -190 -8 -55 -30 -151 -49
-212 -21 -70 -29 -109 -21 -102 18 15 18 -1 0 -26 -22 -33 -191 -341 -233
-426 -13 -26 -27 -76 -33 -110 -8 -56 -66 -318 -88 -404 -6 -21 -13 -29 -26
-27 -10 2 -112 59 -227 128 -116 68 -212 124 -213 124 -2 0 -55 29 -117 65
-171 99 -753 389 -1034 515 -27 13 -92 42 -143 66 -52 24 -95 44 -97 44 -2 0
-62 26 -132 59 -70 32 -150 68 -178 81 -96 43 -263 127 -301 151 -22 13 -72
51 -111 85 -238 202 -580 346 -953 404 -58 9 -152 31 -260 62 -35 10 -114 27
-226 48 -66 12 -61 8 -117 125 -24 52 -48 96 -57 105 -3 3 -12 19 -21 35 -32
62 -64 120 -70 125 -3 3 -20 30 -38 60 -19 30 -68 105 -111 165 -42 61 -87
129 -99 152 -22 44 -28 93 -11 93 6 0 10 6 10 13 0 8 7 28 15 45 22 43 85 57
255 56 98 -1 163 -7 239 -23 270 -57 562 -183 808 -348 74 -49 87 -55 118 -49
20 4 53 22 73 40 110 99 296 223 651 437 195 118 248 146 265 139 12 -4 50
-20 86 -34z m-6005 -248 c8 -21 12 -38 8 -38 -5 0 -16 21 -25 46 -19 54 -7 47
17 -8z m6445 -28 c-8 -5 -28 -9 -45 -9 -26 0 -27 2 -10 9 11 5 31 9 45 9 20 1
22 -1 10 -9z m118 -7 c-10 -2 -26 -2 -35 0 -10 3 -2 5 17 5 19 0 27 -2 18 -5z
m-253 -23 c-3 -5 -12 -10 -18 -10 -7 0 -6 4 3 10 19 12 23 12 15 0z m-2862
-124 c4 -10 1 -13 -9 -9 -15 6 -19 23 -5 23 5 0 11 -7 14 -14z m-3456 -18 c-3
-8 -6 -5 -6 6 -1 11 2 17 5 13 3 -3 4 -12 1 -19z m3377 -36 c3 -5 -1 -9 -9 -9
-8 0 -12 4 -9 9 3 4 7 8 9 8 2 0 6 -4 9 -8z m5639 -579 c-7 -2 -21 -2 -30 0
-10 3 -4 5 12 5 17 0 24 -2 18 -5z m-11203 -162 c19 -17 53 -36 75 -42 l40
-11 -40 -20 c-22 -12 -42 -25 -43 -29 -2 -5 -8 -7 -12 -4 -5 3 -20 -6 -33 -19
-14 -14 -27 -23 -30 -20 -2 2 -10 -2 -17 -11 -7 -8 -18 -15 -25 -15 -8 0 -15
-4 -17 -8 -1 -4 -43 -32 -91 -62 -48 -29 -84 -57 -80 -61 4 -4 42 -17 83 -29
175 -51 315 -141 361 -232 17 -33 17 -38 4 -38 -10 0 -13 5 -9 12 4 6 3 8 -3
5 -6 -4 -28 1 -49 10 -62 26 -214 63 -258 63 -23 0 -48 -4 -55 -9 -23 -15 25
-49 79 -57 25 -3 50 -10 55 -14 6 -4 27 -10 48 -13 20 -3 48 -15 62 -25 l25
-20 -63 -5 c-79 -7 -161 -23 -422 -80 -456 -101 -585 -135 -585 -158 0 -15 29
-11 217 27 147 30 183 34 209 25 44 -16 69 -14 164 15 72 22 256 51 338 53 21
1 22 -1 8 -14 -8 -8 -19 -15 -25 -15 -6 0 -11 -5 -11 -11 0 -5 -13 -15 -30
-20 -17 -6 -27 -16 -23 -22 4 -6 0 -8 -10 -4 -10 3 -17 2 -17 -3 0 -6 -9 -10
-21 -10 -11 0 -17 -4 -14 -10 3 -6 -1 -7 -9 -4 -9 3 -16 1 -16 -5 0 -6 -6 -11
-12 -11 -7 -1 -26 -12 -43 -26 -16 -15 -24 -23 -16 -19 9 6 12 4 7 -4 -4 -6
-11 -9 -15 -7 -8 5 -72 -49 -66 -56 2 -2 -8 -12 -21 -23 -51 -39 -124 -114
-124 -126 0 -7 -3 -10 -6 -6 -8 8 -75 -61 -78 -79 -1 -8 -12 -23 -23 -33 -12
-11 -36 -40 -54 -65 -18 -25 -36 -46 -40 -46 -15 0 -18 -46 -3 -67 23 -36 88
-31 230 17 65 23 140 47 166 55 86 24 264 124 222 125 -20 0 -209 -53 -416
-118 -53 -16 -99 -27 -102 -25 -12 13 179 230 222 253 21 10 111 73 202 139
91 67 203 140 250 163 l85 43 205 0 c113 -1 367 -6 565 -13 551 -18 729 -16
1230 18 88 6 182 15 208 20 26 6 71 10 100 10 29 0 72 5 96 11 41 9 111 -4
111 -21 0 -3 -13 -13 -29 -23 -16 -9 -70 -56 -120 -104 -84 -80 -95 -96 -130
-178 -46 -107 -56 -182 -40 -285 6 -41 11 -124 10 -185 -3 -135 19 -246 84
-435 65 -185 136 -342 179 -392 20 -23 36 -46 37 -52 0 -6 2 -24 3 -40 1 -17
10 -34 21 -40 106 -61 132 -175 54 -240 -36 -30 -96 -35 -156 -12 -21 8 -87
17 -148 21 -60 3 -162 13 -225 21 -339 41 -538 54 -796 53 -205 -1 -261 -4
-261 -14 0 -13 14 -14 33 -3 6 4 11 1 11 -7 0 -8 -5 -13 -11 -12 -6 1 -10 -3
-9 -10 3 -13 -8 -12 -102 11 -33 8 -96 19 -140 25 -43 6 -82 15 -85 20 -3 4
-26 11 -52 15 -27 4 -48 11 -48 17 0 5 -8 9 -17 9 -18 0 -140 35 -178 51 -11
5 -76 27 -145 49 -69 22 -134 44 -145 49 -11 5 -54 21 -95 34 -205 69 -813
307 -1165 457 -250 107 -368 171 -358 196 3 10 -9 20 -40 34 l-44 20 -12 88
c-15 116 -14 177 4 355 21 214 79 499 108 537 39 50 92 100 169 159 90 69 108
82 348 245 263 180 318 216 325 216 4 0 19 8 33 19 32 22 200 119 259 150 23
11 59 21 80 21 21 0 45 5 53 10 11 6 22 3 40 -14 14 -13 41 -38 60 -55z m941
-31 c7 0 9 11 6 30 -8 38 2 38 39 -1 16 -18 49 -45 73 -60 31 -20 39 -29 25
-29 -10 0 -44 -9 -74 -21 -91 -35 -95 -35 -67 -8 13 13 33 29 43 35 10 6 20
16 22 24 4 10 -3 11 -28 7 -18 -4 -44 -7 -57 -7 -22 0 -24 -2 -12 -16 12 -14
11 -16 -6 -13 -18 4 -20 14 -22 79 l-3 75 25 -47 c14 -27 30 -48 36 -48z m155
18 c48 -2 124 -42 98 -52 -26 -10 -84 4 -131 31 -45 25 -56 39 -24 28 10 -3
36 -6 57 -7z m9934 -334 c41 -14 98 -32 125 -39 28 -8 73 -21 100 -29 117 -36
192 -58 230 -67 22 -5 49 -13 60 -18 66 -28 268 -103 310 -115 28 -8 89 -17
137 -21 100 -8 91 -1 207 -160 69 -95 126 -155 167 -174 16 -8 45 -26 64 -40
50 -37 181 -100 207 -101 28 0 38 17 23 35 -11 13 -5 15 41 15 59 1 230 21
379 44 52 8 140 22 195 30 55 9 147 25 205 36 58 11 137 25 175 30 39 6 126
29 195 51 121 40 127 40 162 26 41 -17 62 -54 78 -136 23 -123 7 -217 -38
-227 -15 -3 -56 -17 -92 -30 -100 -36 -248 -84 -262 -84 -7 0 -35 -9 -63 -19
-27 -11 -95 -30 -150 -42 -103 -22 -174 -41 -235 -64 -61 -22 -150 -27 -213
-10 -171 44 -225 61 -422 128 -88 30 -173 58 -190 62 l-30 7 29 -31 c36 -38
257 -152 361 -186 125 -41 251 -65 345 -65 56 0 92 -5 105 -14 11 -7 46 -28
78 -45 l57 -31 180 0 c174 0 337 18 440 50 48 14 81 5 118 -33 26 -28 31 -43
39 -113 10 -97 -2 -294 -20 -309 -19 -17 -72 -32 -192 -54 -258 -47 -344 -54
-604 -49 l-246 6 -100 35 c-55 19 -145 51 -200 70 -113 40 -244 67 -327 67
-69 0 -150 -32 -146 -56 2 -13 -14 -23 -67 -40 -38 -12 -83 -23 -100 -23 -16
-1 -53 -11 -82 -23 -29 -12 -56 -19 -59 -15 -7 7 -31 138 -41 220 -3 26 -9 50
-13 52 -5 3 -18 -7 -29 -21 -26 -33 -27 -89 -6 -234 25 -163 77 -295 170 -426
62 -87 330 -331 437 -399 27 -17 48 -37 48 -46 0 -8 -20 -39 -45 -68 -25 -29
-45 -57 -45 -62 0 -23 32 -5 73 41 25 28 48 50 51 50 11 0 6 -203 -6 -261
l-12 -58 -91 -50 c-115 -64 -192 -94 -296 -117 -68 -14 -89 -15 -126 -6 -30 8
-50 9 -63 2 -10 -5 -31 -10 -47 -10 -51 0 -188 33 -204 49 -9 9 -24 39 -34 66
-10 28 -23 64 -30 80 -8 17 -22 51 -33 77 -11 25 -29 84 -41 130 -40 162 -109
354 -159 440 -143 246 -206 307 -467 449 -113 61 -231 168 -260 234 -39 92
-55 179 -62 339 l-6 159 29 -8 c16 -4 43 -9 59 -10 17 -2 49 -8 73 -13 37 -9
44 -8 53 9 9 18 3 23 -53 48 -89 40 -355 134 -365 128 -4 -3 -18 -1 -31 4
l-24 9 55 102 c30 57 82 152 116 212 34 60 61 113 61 117 0 4 3 9 8 11 8 3 18
24 157 313 115 242 117 245 135 245 8 0 49 -12 90 -26z m2426 -12 c20 -14 61
-77 76 -119 l16 -41 -52 -11 c-57 -11 -147 -31 -246 -55 -78 -19 -174 -40
-252 -55 -32 -6 -84 -16 -115 -22 -56 -11 -458 -23 -418 -13 24 6 132 42 160
54 11 5 112 38 225 74 113 37 221 74 240 83 187 86 220 101 245 106 33 8 109
7 121 -1z m357 -234 c18 -35 47 -137 47 -168 0 -10 -4 -22 -10 -25 -11 -7
-131 -30 -260 -50 -47 -8 -110 -21 -140 -30 -30 -8 -100 -22 -155 -31 -55 -8
-140 -21 -190 -29 -277 -43 -458 -63 -483 -54 -13 5 -34 9 -47 9 -16 0 -44 24
-96 82 -41 45 -85 92 -99 105 l-25 22 230 -1 c127 0 259 4 295 10 140 25 323
64 535 115 192 47 322 75 355 76 19 1 30 -7 43 -31z m-7858 -487 l60 -7 -51
-16 c-75 -24 -146 -62 -199 -108 -34 -29 -54 -40 -69 -36 -12 2 -42 8 -68 11
-26 4 -55 13 -65 20 -15 11 -15 15 -3 30 17 20 81 65 135 94 42 22 132 27 260
12z m1680 -301 c14 -16 16 -23 7 -32 -14 -14 -27 -4 -37 30 -8 27 6 29 30 2z
m2875 -80 c0 -5 -4 -10 -10 -10 -5 0 -10 5 -10 10 0 6 5 10 10 10 6 0 10 -4
10 -10z m-8133 -152 c-3 -8 -6 -5 -6 6 -1 11 2 17 5 13 3 -3 4 -12 1 -19z m75
-173 c9 -20 9 -20 -6 -1 -9 11 -16 27 -15 35 0 14 1 14 6 1 3 -8 10 -24 15
-35z m4678 -102 c58 -74 92 -92 222 -118 151 -30 343 -78 392 -99 20 -8 36
-22 36 -31 0 -19 -13 -17 -150 20 -92 26 -223 56 -339 79 -71 14 -75 16 -142
86 -38 39 -69 75 -69 80 0 20 29 9 50 -17z m-83 -45 c69 -68 69 -77 -4 -66
-32 5 -117 8 -190 6 -72 -2 -129 0 -127 4 8 12 67 21 188 27 l120 6 -27 29
c-27 28 -34 46 -20 46 4 0 31 -23 60 -52z m-4548 -38 c0 -9 -4 -8 -9 5 -5 11
-9 27 -9 35 0 9 4 8 9 -5 5 -11 9 -27 9 -35z m36 -123 c15 -54 25 -101 22
-103 -3 -4 -57 185 -57 202 0 20 11 -10 35 -99z m4828 -56 c9 -9 -14 -10 -103
-5 -178 10 -210 24 -47 20 90 -2 142 -7 150 -15z m90 2 c-7 -2 -21 -2 -30 0
-10 3 -4 5 12 5 17 0 24 -2 18 -5z m497 -39 l25 -15 -30 6 c-16 4 -34 11 -39
16 -16 15 16 10 44 -7z m-763 -90 c-3 -3 -12 -4 -19 -1 -8 3 -5 6 6 6 11 1 17
-2 13 -5z m-336 -81 c38 -21 69 -41 69 -46 0 -7 -11 -12 -75 -37 -34 -14 -123
-40 -134 -40 -20 0 -11 29 10 35 11 4 41 16 66 27 l45 20 -38 39 c-48 49 -31
49 57 2z m334 -48 c90 -45 152 -81 142 -83 -22 -4 -252 109 -292 144 -37 32
-43 34 150 -61z m1449 -91 c30 -20 60 -33 66 -29 19 12 133 23 155 15 19 -7
19 -7 0 -17 -11 -6 -62 -16 -114 -22 -105 -13 -104 -14 -181 58 l-45 42 32 -5
c18 -3 57 -22 87 -42z m-1502 -9 c95 -46 237 -99 501 -185 143 -47 149 -50
195 -101 70 -77 86 -109 54 -109 -10 0 -30 21 -50 54 -18 30 -40 57 -50 60
-324 95 -426 132 -637 231 -92 44 -124 54 -140 47 -84 -37 -170 -54 -163 -31
2 8 24 20 49 28 24 7 62 22 84 32 22 10 45 19 52 19 6 0 53 -20 105 -45z
m1824 -89 c29 -22 8 -35 -74 -42 -39 -4 -72 -10 -72 -14 0 -4 7 -24 15 -43 24
-59 19 -85 -25 -129 l-40 -40 26 -21 c89 -75 90 -75 72 -82 -11 -4 -33 7 -65
32 -62 48 -102 95 -86 100 7 3 27 14 45 26 49 33 50 80 4 140 -34 44 -34 47
-16 57 10 5 47 10 82 11 35 0 72 4 83 9 28 12 29 12 51 -4z m-1120 -51 c54
-16 132 -29 299 -50 61 -8 111 -14 113 -15 1 0 2 -4 2 -10 0 -30 -354 26 -455
72 -49 21 -27 23 41 3z m-4686 -82 c0 -7 -6 -10 -15 -7 -8 4 -15 18 -15 33 1
25 1 25 15 7 8 -11 15 -26 15 -33z m4855 -63 c138 -31 369 -60 471 -60 108 0
112 -1 155 -31 61 -44 99 -80 99 -96 0 -24 -27 -14 -91 34 l-62 47 -123 3
c-68 1 -186 12 -261 23 -76 11 -144 20 -151 20 -8 0 -1 -16 18 -40 37 -47 34
-58 -12 -40 -38 15 -67 46 -103 109 -30 52 -30 54 -7 47 9 -3 40 -10 67 -16z
m-4681 -256 c3 -8 2 -12 -4 -9 -6 3 -10 10 -10 16 0 14 7 11 14 -7z m-1147
-90 c-3 -3 -12 -4 -19 -1 -8 3 -5 6 6 6 11 1 17 -2 13 -5z m829 -42 c-10 -10
-29 15 -21 28 6 9 10 8 17 -4 6 -10 7 -20 4 -24z m-2164 -1187 c2 3 5 -1 5 -9
0 -8 -3 -14 -6 -13 -3 1 -6 -2 -6 -8 0 -5 3 -9 6 -8 3 1 6 -4 6 -12 0 -8 -5
-13 -11 -12 -5 1 -10 -3 -11 -10 0 -6 -20 -34 -45 -61 -25 -28 -76 -86 -115
-130 -38 -44 -73 -77 -77 -74 -3 4 -10 39 -13 77 l-7 70 44 40 c25 22 60 51
79 65 39 28 41 30 89 69 23 20 38 27 46 20 6 -5 13 -7 16 -4z m11778 -4754
c78 -81 151 -162 161 -178 17 -27 17 -63 0 -63 -3 0 -40 33 -80 73 -76 74
-277 346 -242 328 11 -6 83 -78 161 -160z m-13058 -986 c24 -20 44 -52 63
-100 15 -38 57 -127 92 -197 69 -136 90 -160 248 -288 53 -44 74 -66 63 -68
-27 -5 -247 56 -307 86 -31 15 -79 50 -106 78 -28 29 -59 53 -69 55 -22 4 -27
19 -56 159 -21 105 -40 251 -40 318 l0 44 38 -29 c21 -15 54 -41 74 -58z
m15203 -1232 c-10 -93 -36 -195 -61 -234 -26 -41 -79 -89 -167 -150 -89 -61
-231 -146 -310 -186 -135 -68 -448 -175 -464 -159 -3 3 7 22 23 43 16 21 59
87 95 148 l65 109 64 23 c127 46 316 139 419 207 61 40 147 109 201 163 64 62
103 93 118 93 23 0 23 -2 17 -57z"/>
<path d="M10917 18318 c-40 -33 -150 -211 -327 -529 -116 -209 -180 -346 -212
-452 -20 -71 -21 -80 -7 -88 35 -19 177 -139 221 -186 97 -105 84 -218 -41
-356 -28 -30 -51 -60 -51 -66 0 -48 125 64 203 182 74 111 92 162 92 257 0 69
-5 94 -25 135 -22 46 -114 146 -217 238 -24 21 -43 43 -43 49 0 10 119 242
173 338 11 19 39 69 61 110 85 151 214 350 228 350 4 0 49 -19 100 -41 182
-82 354 -201 470 -324 31 -33 59 -57 62 -54 13 13 -45 119 -84 156 -104 96
-289 213 -422 267 -126 50 -136 51 -181 14z"/>
<path d="M6409 18270 c-97 -19 -234 -62 -294 -92 -22 -11 -63 -38 -92 -59 -29
-22 -56 -39 -62 -39 -11 0 -21 -24 -21 -50 0 -11 11 -31 24 -46 41 -49 74 -40
222 57 154 102 158 104 305 173 64 29 119 59 123 65 11 17 -103 12 -205 -9z"/>
<path d="M8565 18095 c-162 -35 -469 -191 -626 -317 -122 -98 -220 -193 -244
-235 -13 -24 -20 -45 -16 -48 5 -2 27 3 50 12 40 16 43 16 71 -6 17 -12 30
-17 30 -11 0 5 -4 10 -10 10 -5 0 -10 5 -10 10 0 6 4 10 10 10 5 0 44 16 85
36 97 45 261 88 423 111 122 17 125 18 82 26 -97 20 -352 -30 -568 -111 -46
-17 -82 -28 -80 -23 5 13 109 103 198 172 186 144 345 235 565 323 155 62 161
68 40 41z"/>
<path d="M6190 17879 c0 -13 8 -23 20 -26 11 -3 22 -15 24 -27 9 -41 22 -291
17 -298 -3 -3 -42 -11 -86 -17 -130 -16 -258 -40 -288 -52 -59 -25 -2 -31 161
-19 86 7 167 13 180 14 19 1 30 -12 64 -74 99 -185 197 -314 265 -349 29 -15
53 9 53 52 0 50 -48 192 -97 288 -25 49 -43 93 -39 97 4 4 187 7 406 7 306 0
402 -3 412 -12 9 -10 9 -13 -3 -13 -30 0 -204 -92 -298 -158 -110 -76 -301
-261 -384 -372 -47 -64 -53 -76 -39 -82 29 -11 30 -10 105 67 68 71 137 126
279 223 35 24 85 59 112 78 59 40 46 44 -25 8 -28 -14 -53 -24 -55 -22 -6 6
134 111 206 155 111 67 229 108 358 125 50 7 92 15 92 19 0 14 -51 20 -235 29
-104 4 -257 14 -340 21 -119 10 -209 10 -439 0 -158 -7 -292 -9 -296 -4 -8 8
-30 209 -30 271 l0 32 63 -6 c165 -14 327 -44 522 -96 61 -17 124 -34 140 -38
17 -4 37 -10 45 -13 8 -3 28 -8 45 -12 l29 -6 -19 21 c-25 28 -62 47 -149 77
-159 54 -401 102 -620 123 -152 14 -156 14 -156 -11z"/>
<path d="M8960 15961 c0 -5 21 -26 48 -47 26 -22 73 -65 105 -98 31 -32 60
-56 64 -52 11 11 -104 135 -164 177 -44 31 -53 34 -53 20z"/>
<path d="M9188 15895 c13 -25 52 -62 52 -48 0 5 -14 22 -31 39 -23 21 -29 23
-21 9z"/>
<path d="M9110 15732 c0 -12 49 -112 55 -112 14 0 -25 103 -44 114 -6 4 -11 3
-11 -2z"/>
<path d="M9070 15679 c0 -18 69 -113 77 -106 6 7 -21 56 -51 92 -18 21 -25 25
-26 14z"/>
<path d="M9300 15416 c0 -23 20 -69 26 -63 9 9 -6 77 -16 77 -6 0 -10 -6 -10
-14z"/>
<path d="M9197 15387 c-10 -27 32 -161 46 -147 6 6 -26 146 -35 155 -3 3 -8 0
-11 -8z"/>
<path d="M6320 15281 c0 -5 7 -14 15 -21 8 -7 15 -21 15 -31 0 -11 5 -19 10
-19 15 0 12 18 -7 51 -17 28 -33 38 -33 20z"/>
<path d="M6418 15285 c-8 -8 3 -55 13 -55 5 0 7 12 5 26 -6 29 -10 37 -18 29z"/>
<path d="M6450 15272 c0 -5 7 -16 16 -23 14 -12 16 -11 13 5 -4 20 -29 35 -29
18z"/>
<path d="M9415 15130 c4 -6 10 -8 15 -5 5 3 12 0 16 -6 4 -8 3 -9 -4 -5 -20
12 -13 -10 9 -30 12 -10 28 -32 36 -47 8 -16 17 -26 20 -23 3 3 -6 23 -21 44
-35 52 -33 65 5 22 34 -39 29 -23 -8 28 -16 21 -32 32 -49 32 -15 0 -23 -4
-19 -10z"/>
<path d="M9430 15032 c0 -5 11 -19 25 -32 19 -18 25 -20 25 -8 0 8 -8 22 -18
31 -20 19 -32 22 -32 9z"/>
<path d="M9376 14713 c4 -10 10 -44 12 -75 4 -60 15 -75 26 -35 10 36 7 66 -9
97 -17 32 -43 43 -29 13z"/>
<path d="M7780 14681 c0 -5 7 -12 16 -15 22 -9 24 -8 24 9 0 8 -9 15 -20 15
-11 0 -20 -4 -20 -9z"/>
<path d="M9580 14683 c0 -5 7 -21 15 -37 8 -16 18 -46 21 -67 4 -21 10 -36 15
-33 12 7 11 57 -1 89 -14 37 -50 71 -50 48z"/>
<path d="M7660 14613 c0 -34 31 -88 59 -103 28 -14 26 1 -3 33 -13 14 -26 41
-30 61 -8 42 -26 48 -26 9z"/>
<path d="M7590 14598 c0 -13 -11 -41 -25 -62 l-23 -39 -13 44 c-9 35 -13 40
-19 24 -4 -10 -3 -36 3 -57 7 -29 6 -40 -6 -53 -14 -13 -18 -12 -36 11 -11 14
-21 29 -23 33 -2 5 -13 12 -25 15 -21 7 -23 4 -23 -26 l0 -33 -19 24 c-16 21
-20 22 -39 10 -23 -14 -29 -29 -13 -29 5 0 12 -17 16 -39 6 -38 7 -39 96 -71
103 -37 125 -56 55 -48 -32 4 -46 2 -43 -6 4 -12 144 -39 165 -31 21 8 4 25
-25 25 -18 0 -24 4 -19 15 6 17 -46 55 -75 55 -18 0 -42 24 -33 32 6 6 110
-47 137 -70 22 -20 35 -7 15 15 -25 30 -31 43 -14 37 8 -3 17 -13 21 -21 5
-14 7 -14 19 2 8 11 20 16 30 12 23 -9 21 -62 -5 -103 -15 -25 -17 -34 -7 -34
42 0 69 112 39 159 -8 12 -12 12 -25 2 -17 -15 -19 -12 -30 44 -6 30 -6 30 12
9 26 -30 59 -47 67 -33 7 10 -21 38 -37 39 -14 0 -57 79 -69 124 -12 48 -29
62 -29 24z m26 -110 c1 -18 6 -46 10 -62 l7 -29 -32 28 c-33 30 -39 61 -20 97
14 27 31 10 35 -34z m-196 -70 c24 -26 20 -33 -15 -24 -16 4 -25 13 -25 26 0
26 14 25 40 -2z"/>
<path d="M7754 14598 c-8 -13 -4 -15 41 -24 35 -6 39 -5 27 8 -15 19 -60 29
-68 16z"/>
<path d="M9370 14561 c0 -6 5 -13 10 -16 16 -10 12 -45 -5 -45 -18 0 -18 -5
-5 -30 10 -18 8 -19 -20 -14 -41 9 -39 -10 4 -30 48 -23 59 -40 52 -80 -9 -47
7 -52 36 -13 27 34 26 42 -18 130 -8 16 -14 38 -14 48 0 11 -5 29 -10 40 -11
20 -30 26 -30 10z"/>
<path d="M9330 14543 c0 -4 5 -15 10 -23 8 -13 10 -13 10 2 0 9 -4 20 -10 23
-5 3 -10 3 -10 -2z"/>
<path d="M9430 14520 c6 -11 13 -20 16 -20 2 0 0 9 -6 20 -6 11 -13 20 -16 20
-2 0 0 -9 6 -20z"/>
<path d="M9530 14486 l0 -34 -30 30 c-17 17 -32 29 -34 27 -7 -8 7 -69 14 -64
23 14 16 -34 -15 -109 -6 -14 -5 -18 6 -14 8 2 28 31 46 64 32 59 42 117 23
129 -6 4 -10 -8 -10 -29z"/>
<path d="M7221 14469 c-6 -17 -4 -33 5 -51 21 -41 32 -34 24 17 -8 55 -17 65
-29 34z"/>
<path d="M7263 14454 c-6 -15 25 -94 37 -94 14 0 18 13 10 33 -5 12 -11 34
-14 50 -7 30 -23 36 -33 11z"/>
<path d="M9208 14338 c-2 -51 -2 -95 0 -97 1 -3 8 1 14 7 16 16 17 174 1 179
-8 3 -12 -23 -15 -89z"/>
<path d="M9254 14383 c4 -16 8 -35 10 -43 3 -8 5 -27 5 -42 1 -41 21 -34 21 7
0 36 -23 105 -36 105 -3 0 -3 -12 0 -27z"/>
<path d="M9300 14395 c0 -3 9 -16 21 -28 14 -15 19 -32 17 -55 -3 -20 0 -31 6
-29 6 2 11 20 11 39 0 28 3 34 18 30 28 -7 19 16 -13 33 -29 15 -60 20 -60 10z"/>
<path d="M9157 14350 c-8 -20 -26 -101 -27 -119 0 -26 23 6 35 47 11 38 4 102
-8 72z"/>
<path d="M9330 14256 c0 -8 -7 -22 -16 -31 -23 -23 -8 -32 16 -10 21 19 27 55
10 55 -5 0 -10 -6 -10 -14z"/>
<path d="M8900 14211 c0 -19 40 -88 66 -112 14 -13 30 -32 35 -41 9 -16 4 -18
-41 -18 -44 0 -56 4 -82 30 -33 33 -33 50 0 65 32 14 27 20 -18 21 -36 1 -52
-8 -32 -19 4 -2 1 -2 -7 0 -8 2 -17 -1 -20 -6 -4 -6 -22 -13 -40 -16 -36 -6
-67 9 -108 53 -13 14 -26 23 -29 19 -11 -11 18 -48 58 -73 34 -22 50 -25 91
-21 47 4 50 3 69 -29 10 -18 27 -33 36 -34 9 0 44 -3 77 -6 42 -4 71 -1 95 10
32 14 33 15 10 16 -14 0 -31 9 -38 21 -12 19 -11 20 23 13 19 -3 43 -3 52 1
13 6 0 12 -47 24 -57 14 -68 21 -98 61 -35 46 -52 60 -52 41z"/>
<path d="M8368 14204 c-17 -16 21 -64 51 -64 11 0 8 5 -7 16 -13 9 -27 25 -31
36 -4 10 -10 16 -13 12z"/>
<path d="M8632 14088 c7 -19 49 -38 83 -37 l30 0 -25 11 c-14 6 -38 17 -54 25
-36 16 -39 16 -34 1z"/>
<path d="M8282 14060 c5 -17 96 -50 116 -43 19 8 4 18 -47 32 -23 7 -50 15
-58 18 -10 4 -14 1 -11 -7z"/>
<path d="M8530 14048 c0 -7 15 -29 33 -49 l33 -36 69 12 c39 6 72 8 75 4 8
-11 58 -29 81 -29 35 0 20 17 -21 24 -42 7 -48 14 -28 34 20 20 1 25 -26 7
-19 -13 -39 -16 -72 -12 -36 4 -44 2 -40 -9 8 -21 -22 -3 -58 35 -32 33 -46
39 -46 19z"/>
<path d="M7866 14021 c-10 -15 85 -174 97 -162 6 6 -4 34 -28 78 -43 79 -60
100 -69 84z"/>
<path d="M8420 14011 c0 -15 82 -71 93 -64 6 4 -7 21 -29 40 -38 32 -64 42
-64 24z"/>
<path d="M7536 14002 c-3 -5 21 -43 53 -83 105 -131 107 -133 115 -120 5 7 -9
33 -33 64 -119 152 -124 157 -135 139z"/>
<path d="M7960 13983 c0 -14 45 -93 52 -93 13 0 9 39 -7 70 -14 27 -45 42 -45
23z"/>
<path d="M8540 13971 c0 -18 67 -61 95 -61 35 0 26 -12 -12 -16 -33 -3 -124
14 -137 27 -6 5 -16 9 -23 9 -27 0 -11 -21 40 -50 59 -34 147 -43 147 -15 0 8
4 15 10 15 5 0 22 13 36 29 22 25 31 29 60 24 20 -3 34 -1 34 4 0 13 -72 25
-80 14 -13 -22 -101 -16 -130 9 -25 22 -40 26 -40 11z"/>
<path d="M7630 13956 c0 -19 32 -60 109 -138 64 -66 81 -78 81 -58 0 13 -170
210 -182 210 -4 0 -8 -6 -8 -14z"/>
<path d="M17965 13741 c-3 -5 -1 -12 5 -16 5 -3 10 1 10 9 0 18 -6 21 -15 7z"/>
<path d="M8104 9459 c-10 -11 -13 -19 -7 -17 6 2 10 -1 10 -7 -1 -5 -5 -9 -8
-8 -3 1 -6 -4 -6 -12 0 -8 3 -13 6 -12 3 1 6 -2 6 -8 0 -5 -3 -9 -6 -8 -3 1
-6 -5 -6 -13 0 -11 4 -11 19 3 10 9 16 18 13 21 -3 3 0 11 6 18 7 8 7 14 -1
19 -8 5 -8 10 0 20 19 22 -6 26 -26 4z"/>
</g>
</svg>
